<svg width="900" height="1200" viewBox="0 0 900 1200" xmlns="http://www.w3.org/2000/svg">
  <defs>
    <linearGradient id="bg" x1="0" y1="0" x2="1" y2="1">
      <stop offset="0%" stop-color="#860012"/>
      <stop offset="55%" stop-color="#b10019"/>
      <stop offset="100%" stop-color="#6f0010"/>
    </linearGradient>
    <radialGradient id="glow" cx="50%" cy="55%" r="60%">
      <stop offset="0%" stop-color="#ff6a6a" stop-opacity="0.28"/>
      <stop offset="100%" stop-color="#ff6a6a" stop-opacity="0"/>
    </radialGradient>
    <filter id="blur" x="-20%" y="-20%" width="140%" height="140%">
      <feGaussianBlur stdDeviation="6"/>
    </filter>
  </defs>

  <rect width="900" height="1200" fill="url(#bg)"/>
  <rect width="900" height="1200" fill="url(#glow)"/>

  <ellipse cx="390" cy="750" rx="300" ry="170" fill="#f5a3a3" opacity="0.23"/>
  <ellipse cx="670" cy="520" rx="210" ry="130" fill="#f4b1b1" opacity="0.2"/>
  <ellipse cx="210" cy="500" rx="180" ry="110" fill="#f4b1b1" opacity="0.2"/>

  <rect x="125" y="620" width="650" height="310" rx="24" fill="#b80d1f" opacity="0.52"/>
  <rect x="165" y="660" width="570" height="230" rx="18" fill="#d43040" opacity="0.28"/>

  <circle cx="260" cy="700" r="90" fill="#f6bcbc" opacity="0.3" filter="url(#blur)"/>
  <circle cx="445" cy="720" r="102" fill="#f6bcbc" opacity="0.28" filter="url(#blur)"/>
  <circle cx="622" cy="700" r="88" fill="#f6bcbc" opacity="0.26" filter="url(#blur)"/>

  <ellipse cx="276" cy="945" rx="110" ry="30" fill="#64000d" opacity="0.46"/>
  <ellipse cx="620" cy="958" rx="120" ry="34" fill="#64000d" opacity="0.46"/>

  <rect x="65" y="1030" width="770" height="110" fill="#53000a" opacity="0.36"/>
</svg>
